<?xml version="1.0" encoding="UTF-8" standalone="no"?>
<!-- Created with Inkscape (http://www.inkscape.org/) -->

<svg
   xmlns:dc="http://purl.org/dc/elements/1.1/"
   xmlns:cc="http://creativecommons.org/ns#"
   xmlns:rdf="http://www.w3.org/1999/02/22-rdf-syntax-ns#"
   xmlns:svg="http://www.w3.org/2000/svg"
   xmlns="http://www.w3.org/2000/svg"
   xmlns:sodipodi="http://sodipodi.sourceforge.net/DTD/sodipodi-0.dtd"
   xmlns:inkscape="http://www.inkscape.org/namespaces/inkscape"
   width="744.09448819"
   height="1052.3622047"
   id="svg3805"
   version="1.1"
   inkscape:version="0.48.4 r9939"
   sodipodi:docname="New document 3">
  <defs
     id="defs3807" />
  <sodipodi:namedview
     id="base"
     pagecolor="#ffffff"
     bordercolor="#666666"
     borderopacity="1.0"
     inkscape:pageopacity="0.0"
     inkscape:pageshadow="2"
     inkscape:zoom="0.35"
     inkscape:cx="375"
     inkscape:cy="520"
     inkscape:document-units="px"
     inkscape:current-layer="layer1"
     showgrid="false"
     inkscape:window-width="471"
     inkscape:window-height="402"
     inkscape:window-x="3"
     inkscape:window-y="108"
     inkscape:window-maximized="0" />
  <metadata
     id="metadata3810">
    <rdf:RDF>
      <cc:Work
         rdf:about="">
        <dc:format>image/svg+xml</dc:format>
        <dc:type
           rdf:resource="http://purl.org/dc/dcmitype/StillImage" />
        <dc:title></dc:title>
      </cc:Work>
    </rdf:RDF>
  </metadata>
  <g
     inkscape:label="Layer 1"
     inkscape:groupmode="layer"
     id="layer1">
    <path
       inkscape:connector-curvature="0"
       style="fill:#008000;fill-opacity:0.47761195;stroke:#000000;stroke-width:3.54330707;stroke-linecap:butt;stroke-linejoin:miter;stroke-miterlimit:1;stroke-opacity:1;stroke-dasharray:none;stroke-dashoffset:0"
       d="m 51.022323,530.21843 0,116.6875 280.812497,0 0,-116.6875 -280.812497,0 z"
       id="rect2991" />
    <path
       style="fill:#008000;fill-opacity:0.47761195;stroke:#000000;stroke-width:3.54330707;stroke-linecap:butt;stroke-linejoin:miter;stroke-miterlimit:1;stroke-opacity:1;stroke-dasharray:none;stroke-dashoffset:0"
       id="path3784"
       d="m 94.312504,530.38468 c 0,2.24542 0,4.49084 0,6.73625 0,1.42653 0,2.85305 0,4.27957 0,1.11801 0,2.23601 0,3.35402 0,1.2219 0,2.4438 0,3.6657 0,2.29776 0,4.59552 0,6.89329 0,2.1944 0,4.38881 0,6.58322 0,1.49857 0,2.99715 0,4.49572 0,1.26876 0,2.53753 0,3.80629 0,1.17476 0,2.34952 0,3.52428 0,1.19091 0,2.38182 0,3.57273 0,0.94621 0,1.89243 0,2.83865 0,1.00569 0,2.01138 0,3.01708 0,1.02864 0,2.05729 0,3.08593 0,1.00896 0,2.01792 0,3.02687 0,1.70018 0,3.40036 0,5.10054 0,2.01905 0,4.03811 0,6.05716 0,1.4749 0,2.94979 0,4.42469 0,1.54419 0,3.08839 0,4.63259 0,1.38915 0,2.77829 0,4.16744 0,1.20393 0,2.40785 0,3.61178 0,1.19186 0,2.38373 0,3.5756 0.21558,1.49954 0.44496,2.99395 0.58334,4.50358 0.11163,1.2493 0.12526,2.5045 0.13391,3.75789 0.004,1.01309 7.4e-4,2.02618 -7.6e-4,3.03927 -0.002,1.43324 -0.002,2.86649 -0.002,4.29974 -1.6e-4,1.62167 -1.4e-4,3.24334 -1.3e-4,4.86501 1e-5,1.10487 2e-5,2.20974 3e-5,3.3146 0,0.78575 0,1.5715 0,2.35724 0,0.55133 0,1.10266 0,1.65398 0,0.50508 -0.71428,0.50508 -0.71428,0 l 0,0 c 0,-0.55132 0,-1.10265 0,-1.65398 0,-0.78574 0,-1.57149 -1e-5,-2.35723 0,-1.10487 -10e-6,-2.20974 -2e-5,-3.3146 -1e-5,-1.62171 -4e-5,-3.24342 1.2e-4,-4.86513 2.1e-4,-1.43356 2.9e-4,-2.86713 0.002,-4.30069 10e-4,-1.01109 0.005,-2.0222 7.7e-4,-3.03329 -0.008,-1.23329 -0.0214,-2.46839 -0.13095,-3.69769 -0.14003,-1.53142 -0.38225,-3.04573 -0.58632,-4.5687 0,-1.19187 0,-2.38374 0,-3.5756 0,-1.20393 0,-2.40785 0,-3.61178 0,-1.38915 0,-2.77829 0,-4.16744 0,-1.5442 0,-3.0884 0,-4.63259 0,-1.4749 0,-2.94979 0,-4.42469 0,-2.01905 0,-4.03811 0,-6.05716 0,-1.70018 0,-3.40036 0,-5.10054 0,-1.00895 0,-2.01791 0,-3.02687 0,-1.02864 0,-2.05729 0,-3.08593 0,-1.0057 0,-2.01139 0,-3.01708 0,-0.94622 0,-1.89244 0,-2.83865 0,-1.19091 0,-2.38182 0,-3.57273 0,-1.17476 0,-2.34952 0,-3.52428 0,-1.26876 0,-2.53753 0,-3.80629 0,-1.49857 0,-2.99715 0,-4.49572 0,-2.19441 0,-4.38882 0,-6.58322 0,-2.29777 0,-4.59553 0,-6.89329 0,-1.2219 0,-2.4438 0,-3.6657 0,-1.11801 0,-2.23601 0,-3.35402 0,-1.42652 0,-2.85304 0,-4.27957 0,-2.24541 0,-4.49083 0,-6.73625 0,-0.50507 0.71429,-0.50507 0.71429,0 z"
       inkscape:connector-curvature="0" />
    <path
       style="fill:#008000;fill-opacity:0.47761195;stroke:#000000;stroke-width:3.54330707;stroke-linecap:butt;stroke-linejoin:miter;stroke-miterlimit:1;stroke-opacity:1;stroke-dasharray:none;stroke-dashoffset:0"
       id="path3788"
       d="m 290.02678,531.18441 c 0,3.96299 0,7.92599 0,11.88899 0,3.36329 0,6.72658 0,10.08988 0,1.49671 0,2.99342 0,4.49013 0,2.26056 0,4.52112 0,6.78169 0,2.88625 0,5.77249 0,8.65874 0,3.12572 0,6.25144 0,9.37716 0,2.88934 0,5.77869 0,8.66803 0,2.43121 0,4.86243 0,7.29364 0,2.18448 0,4.36895 0,6.55342 0,1.60302 0,3.20604 0,4.80905 0,1.98869 0,3.97738 0,5.96607 0,1.79079 0,3.58159 0,5.37239 0,1.89095 0,3.78191 0,5.67286 0.0134,1.52752 0.0656,3.03821 -0.20923,4.54445 -0.24317,1.3391 -0.37834,2.69299 -0.45949,4.05043 -0.0547,1.15295 -0.05,2.30765 -0.0506,3.46158 7.7e-4,0.97294 0.003,1.94588 0.004,2.91883 8.5e-4,0.77583 9.8e-4,1.55167 10e-4,2.32751 -0.009,0.73818 -0.36732,1.41706 -0.52624,2.1357 -0.10659,0.61422 -0.1363,1.23813 -0.16484,1.85974 -0.0233,0.50454 -0.7368,0.47162 -0.71352,-0.0329 l 0,0 c 0.0307,-0.66294 0.0632,-1.32838 0.18131,-1.98279 0.15099,-0.66795 0.47474,-1.30374 0.509,-1.97966 -7e-5,-0.7756 -2.1e-4,-1.55119 -10e-4,-2.32678 -0.001,-0.97334 -0.003,-1.94668 -0.004,-2.92003 6.5e-4,-1.16803 -0.004,-2.33684 0.0519,-3.50385 0.0831,-1.38629 0.22146,-2.76894 0.46991,-4.13647 0.26915,-1.46291 0.20541,-2.93172 0.19754,-4.41574 0,-1.89095 0,-3.78191 0,-5.67286 0,-1.7908 0,-3.5816 0,-5.37239 0,-1.98869 0,-3.97738 0,-5.96607 0,-1.60301 0,-3.20603 0,-4.80905 0,-2.18447 0,-4.36894 0,-6.55342 0,-2.43121 0,-4.86243 0,-7.29364 0,-2.88934 0,-5.77869 0,-8.66803 0,-3.12572 0,-6.25144 0,-9.37716 0,-2.88625 0,-5.77249 0,-8.65874 0,-2.26057 0,-4.52113 0,-6.78169 0,-1.49671 0,-2.99342 0,-4.49013 0,-3.3633 0,-6.72659 0,-10.08988 0,-3.963 0,-7.926 0,-11.88899 0,-0.50508 0.71428,-0.50508 0.71428,0 z"
       inkscape:connector-curvature="0" />
  </g>
</svg>
